HIERARCHY
ROOT Hips
{
	OFFSET 22.476786 14.936509 8.291926
	CHANNELS 6 Xposition Yposition Zposition Zrotation Yrotation Xrotation
	JOINT LHipJoint
	{
		OFFSET 1.970282 0.662079 -2.337558
		CHANNELS 3 Zrotation Yrotation Xrotation
		JOINT LeftUpLeg
		{
			OFFSET -1.485446 -9.756525 -6.513902
			CHANNELS 3 Zrotation Yrotation Xrotation
			JOINT LeftLeg
			{
				OFFSET 2.785660 3.866016 -3.567305
				CHANNELS 3 Zrotation Yrotation Xrotation
				JOINT LeftFoot
				{
					OFFSET 9.327613 -5.025424 -11.603628
					CHANNELS 3 Zrotation Yrotation Xrotation
					JOINT LeftToeBase
					{
						OFFSET -3.428050 -1.841318 -11.093254
						CHANNELS 3 Zrotation Yrotation Xrotation
						End Site
						{
							OFFSET 0.000000 0.000000 0.000000
						}
					}
				}
			}
		}
	}
	JOINT RHipJoint
	{
		OFFSET 5.495824 -5.151551 18.243622
		CHANNELS 3 Zrotation Yrotation Xrotation
		JOINT RightUpLeg
		{
			OFFSET -23.105360 -17.707834 30.731472
			CHANNELS 3 Zrotation Yrotation Xrotation
			JOINT RightLeg
			{
				OFFSET 9.666821 -21.026876 -26.974052
				CHANNELS 3 Zrotation Yrotation Xrotation
				JOINT RightFoot
				{
					OFFSET -9.583385 -5.179278 17.697262
					CHANNELS 3 Zrotation Yrotation Xrotation
					JOINT RightToeBase
					{
						OFFSET 18.225346 40.232815 39.609062
						CHANNELS 3 Zrotation Yrotation Xrotation
						End Site
						{
							OFFSET 0.000000 0.000000 0.000000
						}
					}
				}
			}
		}
	}
	JOINT LowerBack
	{
		OFFSET 37.615849 29.196836 17.805578
		CHANNELS 3 Zrotation Yrotation Xrotation
		JOINT Spine
		{
			OFFSET 26.118319 27.185705 34.409050
			CHANNELS 3 Zrotation Yrotation Xrotation
			JOINT Spine1
			{
				OFFSET 28.346685 28.737314 38.618977
				CHANNELS 3 Zrotation Yrotation Xrotation
				JOINT Neck
				{
					OFFSET 38.489735 43.082592 45.659901
					CHANNELS 3 Zrotation Yrotation Xrotation
					JOINT Neck1
					{
						OFFSET 27.700180 29.191578 9.641229
						CHANNELS 3 Zrotation Yrotation Xrotation
						JOINT Head
						{
							OFFSET 22.537237 27.783073 16.191700
							CHANNELS 3 Zrotation Yrotation Xrotation
							End Site
							{
								OFFSET 0.000000 0.000000 0.000000
							}
						}
					}
				}
				JOINT LeftShoulder
				{
					OFFSET 28.075010 -4.786860 28.180313
					CHANNELS 3 Zrotation Yrotation Xrotation
					JOINT LeftArm
					{
						OFFSET 35.787281 2.025336 52.478699
						CHANNELS 3 Zrotation Yrotation Xrotation
						JOINT LeftForeArm
						{
							OFFSET 27.311028 42.489738 42.868324
							CHANNELS 3 Zrotation Yrotation Xrotation
							JOINT LeftHand
							{
								OFFSET 18.108696 14.712060 10.261465
								CHANNELS 3 Zrotation Yrotation Xrotation
								JOINT LeftFingerBase
								{
									OFFSET 19.481339 37.141273 43.300968
									CHANNELS 3 Zrotation Yrotation Xrotation
									JOINT LeftHandIndex1
									{
										OFFSET 33.154793 7.791660 -24.827620
										CHANNELS 3 Zrotation Yrotation Xrotation
										End Site
										{
											OFFSET 0.000000 0.000000 0.000000
										}
									}
								}
								JOINT LThumb
								{
									OFFSET 20.378248 3.370570 6.790819
									CHANNELS 3 Zrotation Yrotation Xrotation
									End Site
									{
										OFFSET 0.000000 0.000000 0.000000
									}
								}
							}
						}
					}
				}
				JOINT RightShoulder
				{
					OFFSET 6.054534 6.693532 10.411406
					CHANNELS 3 Zrotation Yrotation Xrotation
					JOINT RightArm
					{
						OFFSET -5.531957 13.674825 -6.593910
						CHANNELS 3 Zrotation Yrotation Xrotation
						JOINT RightForeArm
						{
							OFFSET -20.341272 -3.281077 -10.164089
							CHANNELS 3 Zrotation Yrotation Xrotation
							JOINT RightHand
							{
								OFFSET -6.498815 -0.666404 -1.156832
								CHANNELS 3 Zrotation Yrotation Xrotation
								JOINT RightFingerBase
								{
									OFFSET 0.802323 -5.556721 -9.029456
									CHANNELS 3 Zrotation Yrotation Xrotation
									JOINT RightHandIndex1
									{
										OFFSET -10.823294 -10.823493 -14.582971
										CHANNELS 3 Zrotation Yrotation Xrotation
										End Site
										{
											OFFSET 0.000000 0.000000 0.000000
										}
									}
								}
								JOINT RThumb
								{
									OFFSET -8.260607 -3.893578 7.953658
									CHANNELS 3 Zrotation Yrotation Xrotation
									End Site
									{
										OFFSET 0.666510 0.755325 3.046450
									}
								}
							}
						}
					}
				}
			}
		}
	}
}
MOTION
Frames: 8
Frame Time: 0.008333
11.465566 18.058235 31.042097 2.127639 12.602897 19.613411 16.576744 7.365432 13.609465 -11.567392 8.842469 24.355618 3.833109 8.619014 59.389248 4.466778 21.659449 32.839611 4.571177 9.635579 150.323593 -113.291245 -67.337303 26.370781 112.339355 25.912590 88.960999 20.247856 11.817569 62.680214 6.452513 41.642586 56.065411 5.726028 47.143124 -15.948757 -3.880830 13.243542 106.354256 -1.403322 7.959004 34.235550 54.746185 15.809939 27.898731 16.439072 6.632166 27.958145 6.340707 46.269485 102.598274 27.904821 13.478220 46.697987 56.586498 -31.037159 22.487753 18.111298 450.671112 387.404541 261.381744 224.851929 269.839355 22.789688 59.326294 627.576172 98.554337 386.665192 -363.192139 -7.125000 0.000000 0.000000 480.863312 148.783630 257.804321 19.302738 111.088676 22.524042 48.226524 -12.272564 97.115570 29.649246 55.741520 1.004379 -1.817787 5.810145 74.488426 73.081284 105.644630 57.998936 7.125000 0.000000 0.000000 121.950508 94.354080 209.956680
9.405376 17.564346 14.974060 -0.482966 8.533007 16.274809 13.015924 5.031198 9.616747 -22.317301 -2.146647 8.625483 0.552422 7.159223 56.262539 2.931548 9.452259 13.407969 2.338468 -0.822966 114.759567 -132.795792 -77.526344 10.625679 61.493118 -13.087729 28.243614 9.276379 -1.323321 3.041689 -14.513386 -35.032883 -49.114639 -4.384346 13.338942 -122.772163 -27.769028 -6.856860 75.767326 -13.234657 -15.984504 11.924413 33.996868 -1.815693 -13.883009 -31.325619 -37.420883 -31.827585 -17.591919 3.930490 48.917137 4.549705 -4.571808 8.912322 14.555314 -76.893066 5.881132 -123.641800 145.576981 -279.887207 -301.039581 -179.687424 -137.203568 -0.844751 4.853638 -223.225449 -343.012451 -310.600647 -844.887939 -7.125000 0.000000 0.000000 -230.075150 -444.838043 -467.651276 -58.972095 66.083778 11.600761 -12.088768 -66.378403 -26.953323 -29.756100 16.970675 -26.987034 -4.464032 3.597705 49.148232 21.237597 84.821045 -7.536099 7.125000 0.000000 0.000000 61.859928 65.495941 181.825226
11.111240 18.303553 41.366020 4.593244 17.555721 23.966534 19.898279 9.411517 15.555862 -4.402201 15.848999 34.318527 7.040016 11.845185 65.608307 6.518422 27.504467 56.068245 6.465619 23.925591 221.215225 -88.484383 -56.409313 43.130882 162.137650 70.385773 159.232437 37.354294 30.637787 120.757751 18.067749 88.211983 117.194016 15.285573 90.352379 141.867630 29.755543 41.134861 150.825012 16.601950 38.119598 72.518547 86.776680 42.261848 85.770416 68.169014 47.141571 103.615700 38.787395 129.657562 211.966217 86.508881 59.824127 133.200089 138.011108 26.308092 40.418980 129.824448 622.750427 675.413574 407.978699 337.978668 385.681335 27.739147 70.720001 751.513855 165.156189 524.158875 -215.456726 -7.125000 0.000000 0.000000 697.548157 360.783203 586.999451 35.249844 130.405350 28.278660 97.235939 60.157810 228.768814 69.893242 83.635345 18.454464 1.409498 9.215171 135.014709 271.512115 190.976639 227.945755 7.125000 0.000000 0.000000 299.817078 165.215103 359.160400
9.649635 18.203234 36.309265 0.699105 8.837136 13.012404 9.943368 4.083162 7.323681 -25.699074 -7.869524 -1.241234 -0.824980 4.258609 39.966759 1.492147 3.762762 35.361778 3.561209 6.336467 150.859207 -123.573479 -73.933067 15.727279 68.006599 -8.672046 38.569847 9.840863 -5.456583 -22.875614 -19.328402 -50.262383 -91.284576 -8.248189 0.671456 -167.921341 -40.044987 -14.271049 64.839676 -18.795191 -34.124027 0.641969 22.606285 -5.361360 -18.733198 -28.204769 -35.266823 -36.934776 -23.340084 -14.181502 15.823636 -15.379076 -13.135841 -3.375723 10.654776 -73.104691 10.071601 -61.047867 247.185669 -59.961189 -198.520294 -77.846092 -44.491611 7.474480 30.106440 229.247253 -100.369431 63.395130 -536.010498 -7.125000 0.000000 0.000000 -11.563544 -275.650543 -208.079483 -39.914574 90.615616 15.638308 16.696381 -46.935459 18.227718 -12.240301 35.529842 -14.264947 -2.351876 4.873576 74.453537 83.200867 103.256279 11.242172 7.125000 0.000000 0.000000 -26.106094 -1.638056 42.202099
8.937413 18.011833 28.575813 0.762909 10.338980 15.036612 11.362586 4.386733 7.307951 -25.058163 -6.253779 6.003092 0.373689 5.815804 46.393536 1.157966 -5.473252 18.564457 2.032893 0.435238 126.339317 -122.582390 -71.690887 23.630196 97.530777 19.872211 80.713531 20.658100 10.131173 58.200836 2.988824 39.740993 37.306885 7.783611 57.009239 50.042427 8.800630 28.676912 133.281509 9.566916 18.993286 52.854050 67.351524 25.723015 43.207420 29.913504 14.351658 39.708900 8.036680 50.188858 97.280266 23.934420 14.649178 39.853298 52.171478 -46.108192 17.693214 -9.173683 380.644623 220.640060 26.348804 63.949039 68.332008 9.193771 31.111334 190.566864 -96.865509 105.557434 -483.103424 -7.125000 0.000000 0.000000 243.824829 -11.800884 95.741035 -3.113720 111.233925 21.191525 63.012764 -4.248759 116.744659 17.872200 51.914078 -3.324694 -1.682414 5.158095 82.024193 82.418655 110.658325 54.713886 7.125000 0.000000 0.000000 60.270077 26.368263 75.101349
7.939274 17.584232 11.129802 -3.158444 2.708646 8.447757 5.472278 1.714956 4.084356 -33.381927 -15.530945 -22.338333 -9.497673 -6.122367 9.258001 -5.678216 -32.146160 -12.190935 -0.934162 -13.858245 71.533554 -145.243973 -83.815269 -0.750195 12.320089 -68.331886 -70.897148 -19.878876 -40.699387 -126.239716 -47.811413 -144.666199 -230.340942 -23.883018 -61.389622 -371.293365 -88.216850 -56.615002 -5.735201 -50.207500 -98.360687 -61.692375 -28.554480 -45.350971 -111.793221 -111.453796 -102.860924 -122.148666 -56.531967 -86.303375 -80.556831 -63.889053 -48.593182 -77.018356 -60.488422 -147.996155 -15.598198 -237.203079 -56.978222 -567.626526 -567.731689 -329.532837 -322.985077 -11.166087 -9.782043 -337.780121 -354.068024 -323.358765 -824.680969 -7.125000 0.000000 0.000000 -527.281128 -647.161072 -752.021484 -92.611626 50.187702 2.455640 -57.389374 -130.027893 -128.034515 -72.910881 -4.639318 -43.202698 -6.608934 0.966768 28.136616 -64.925430 45.361279 -88.148270 7.125000 0.000000 0.000000 -56.672489 -31.602848 -53.177132
9.182186 17.878172 26.062807 1.384892 9.311566 17.449154 13.846451 5.902076 10.026997 -19.239819 -0.921265 7.856104 -1.324861 5.845861 48.640594 3.184508 7.499290 32.518597 3.872360 10.200116 144.229477 -118.208832 -69.908478 22.667847 93.673042 15.240631 70.623489 16.848057 4.043244 32.942066 -5.229132 38.273163 32.130100 7.874645 68.487671 67.370445 1.368038 19.634844 113.195549 0.708106 2.447745 34.902351 54.556469 13.382757 19.023527 7.897159 -5.201655 19.255856 -0.520006 28.885914 80.661781 12.774623 5.107366 23.158281 34.183537 -62.070030 13.075603 -45.530022 314.301025 189.284500 1.417126 52.906414 72.406189 6.252034 31.700237 132.718491 -144.696747 62.974648 -539.157471 -7.125000 0.000000 0.000000 145.139603 -71.828979 -56.289551 -18.350840 103.704025 20.281635 47.015278 -8.398653 104.200073 18.308266 51.750217 -6.793797 -3.353919 2.864278 47.550850 -39.783043 53.480644 -73.160667 7.125000 0.000000 0.000000 -5.100684 -10.387812 0.807286
8.386636 17.581739 16.861963 -1.205670 1.511725 9.030636 5.809287 1.186771 3.493209 -36.917458 -19.308578 -17.624445 -8.340258 -1.776680 17.030882 -4.571738 -29.200644 -5.076579 0.094272 -7.321236 76.393089 -149.991165 -83.891693 4.341104 36.610188 -42.870201 -36.378708 -7.334356 -22.376326 -52.581646 -30.244595 -62.891594 -127.293190 -10.638994 0.926255 -167.926147 -52.004738 -23.425777 40.847656 -26.987185 -49.281551 -12.896503 15.004492 -16.687136 -42.396103 -43.951885 -47.427635 -38.054092 -25.052513 -18.685936 25.221706 -22.430470 -21.163614 -27.134233 -16.203373 -101.855042 0.763030 -138.095276 107.760834 -219.139954 -361.883850 -192.331802 -161.533112 -5.464339 11.924641 -81.405701 -241.080109 -110.664291 -681.935303 -7.125000 0.000000 0.000000 -134.348587 -283.546722 -313.912933 -53.915604 79.624359 11.617773 -10.957237 -76.773727 -59.597607 -64.027458 -3.247614 -41.389664 -6.549386 0.246055 14.144788 -114.548508 24.502386 -147.326736 7.125000 0.000000 0.000000 -203.135666 -108.713928 -167.918625
